<svg width="162" height="66" viewBox="0 0 162 66" fill="none" xmlns="http://www.w3.org/2000/svg">
<path d="M0.878906 31.4453L3.69141 30.4609C3.83203 31.4453 4.20703 32.2539 4.81641 32.8867C5.44922 33.5195 6.04688 33.9062 6.60938 34.0469L7.41797 34.2578V37.1055C5.35547 37.1055 3.62109 36.2266 2.21484 34.4688C1.34766 33.3672 0.902344 32.3594 0.878906 31.4453ZM1.16016 19.0352C1.16016 16.5039 2.25 14.6055 4.42969 13.3398C5.50781 12.707 6.50391 12.3906 7.41797 12.3906V15.2734C6.59766 15.3672 5.82422 15.8008 5.09766 16.5742C4.44141 17.3008 4.11328 18.1328 4.11328 19.0703C4.11328 20.5 5.14453 21.5781 7.20703 22.3047C7.72266 22.4688 8.50781 22.6914 9.5625 22.9727C10.6641 23.2773 11.4375 23.5117 11.8828 23.6758C13.9922 24.543 15.3398 25.7266 15.9258 27.2266C16.2305 27.9766 16.3828 28.8203 16.3828 29.7578C16.3828 31.7969 15.5977 33.5664 14.0273 35.0664C12.5977 36.4258 10.9805 37.1055 9.17578 37.1055V34.2578C10.1367 34.2109 11.0625 33.7539 11.9531 32.8867C12.8438 31.9727 13.3008 30.9297 13.3242 29.7578C13.3242 28.1172 12.1875 26.9219 9.91406 26.1719C9.42188 26.0078 8.67188 25.8086 7.66406 25.5742C6.58594 25.3164 5.85938 25.1055 5.48438 24.9414C3.49219 24.1211 2.21484 23.043 1.65234 21.707C1.32422 20.9336 1.16016 20.043 1.16016 19.0352ZM9.17578 15.2734V12.3906C11.2148 12.3906 12.9141 13.293 14.2734 15.0977C14.9531 16.0117 15.3281 16.832 15.3984 17.5586L12.5508 18.5078C12.2227 16.8672 11.2852 15.8242 9.73828 15.3789C9.36328 15.3086 9.17578 15.2734 9.17578 15.2734ZM18.6328 31.7969V23.1133C18.6328 22.0117 19.125 20.9336 20.1094 19.8789C21.3281 18.6133 22.8516 17.9805 24.6797 17.9805V20.8281C23.2969 20.8281 22.3359 21.4023 21.7969 22.5508C21.6328 22.9023 21.5508 23.2539 21.5508 23.6055V31.3398C21.5508 32.207 21.9492 32.9453 22.7461 33.5547C23.3086 33.9766 23.9531 34.1875 24.6797 34.1875V37.0352C22.4531 37.0352 20.7305 36.1328 19.5117 34.3281C18.9258 33.4375 18.6328 32.5938 18.6328 31.7969ZM26.1914 37.0352V34.1875C27.4336 34.1875 28.3242 33.625 28.8633 32.5C29.0508 32.125 29.1445 31.7617 29.1445 31.4102V23.6055C29.1445 22.6445 28.7344 21.8828 27.9141 21.3203C27.3984 20.9922 26.8125 20.8281 26.1562 20.8281V17.9805C28.3125 17.9805 29.9766 18.8594 31.1484 20.6172C31.7344 21.4844 32.0273 22.3164 32.0273 23.1133V31.7969C32.0273 32.9453 31.5352 34.0586 30.5508 35.1367C29.4023 36.3789 27.9492 37.0117 26.1914 37.0352ZM34.6992 37V23.1133C34.6992 21.8008 35.1914 20.6289 36.1758 19.5977C37.2773 18.4727 38.6719 17.9102 40.3594 17.9102V20.793C39.0938 20.793 38.2617 21.3438 37.8633 22.4453C37.7461 22.7969 37.6875 23.1484 37.6875 23.5V37H34.6992ZM41.9414 20.793V17.9102C43.7227 17.957 45.1289 18.5781 46.1602 19.7734C47.332 18.5781 48.7383 17.957 50.3789 17.9102V20.793C49.1133 20.793 48.2695 21.3438 47.8477 22.4453C47.7305 22.7734 47.6719 23.125 47.6719 23.5V37H44.6836V23.5C44.6836 22.3047 44.1797 21.4844 43.1719 21.0391C42.7969 20.875 42.3867 20.793 41.9414 20.793ZM51.9609 20.793V17.9102C54.1875 17.9102 55.8398 18.8242 56.918 20.6523C57.4102 21.4961 57.6562 22.3164 57.6562 23.1133V37H54.668V23.5C54.668 22.2109 54.1289 21.3672 53.0508 20.9688C52.7227 20.8516 52.3594 20.793 51.9609 20.793ZM60.3633 31.7969V23.0781C60.3867 22 60.9023 20.9336 61.9102 19.8789C63.1289 18.6367 64.6055 18.0039 66.3398 17.9805V20.7578C65.2148 20.7578 64.3359 21.25 63.7031 22.2344C63.4453 22.6562 63.3164 23.043 63.3164 23.3945V25.7852H71.1914V23.3945C71.1914 22.3398 70.6523 21.5664 69.5742 21.0742C69.082 20.8398 68.5781 20.7227 68.0625 20.7227V17.9805C69.6797 17.9805 71.1211 18.5547 72.3867 19.7031C73.4414 20.7109 73.9805 21.8242 74.0039 23.043V28.6328H63.3164V31.7969C63.3164 32.4531 63.6914 33.0625 64.4414 33.625C65.0508 34.0469 65.6953 34.2578 66.375 34.2578V37C64.2422 37 62.5664 36.1328 61.3477 34.3984C60.6914 33.4844 60.3633 32.6172 60.3633 31.7969ZM68.0625 37V34.2227C69.4688 34.2227 70.5234 33.6133 71.2266 32.3945C71.3672 32.1367 71.4727 31.8906 71.543 31.6562L74.0391 32.5703C73.6172 34.1875 72.6562 35.4062 71.1562 36.2266C70.1953 36.7422 69.1641 37 68.0625 37ZM76.8516 37V12.3906H79.9102V23.1133H83.0742V26.1016H79.9102V37H76.8516ZM84.832 26.1016V23.1133H87.9609V12.3906H91.0547V37H87.9609V26.1016H84.832ZM93.7969 31.7969V23.1133C93.7969 22.0117 94.2891 20.9336 95.2734 19.8789C96.4922 18.6133 98.0156 17.9805 99.8438 17.9805V20.8281C98.4609 20.8281 97.5 21.4023 96.9609 22.5508C96.7969 22.9023 96.7148 23.2539 96.7148 23.6055V31.3398C96.7148 32.207 97.1133 32.9453 97.9102 33.5547C98.4727 33.9766 99.1172 34.1875 99.8438 34.1875V37.0352C97.6172 37.0352 95.8945 36.1328 94.6758 34.3281C94.0898 33.4375 93.7969 32.5938 93.7969 31.7969ZM101.355 37.0352V34.1875C102.598 34.1875 103.488 33.625 104.027 32.5C104.215 32.125 104.309 31.7617 104.309 31.4102V23.6055C104.309 22.6445 103.898 21.8828 103.078 21.3203C102.562 20.9922 101.977 20.8281 101.32 20.8281V17.9805C103.477 17.9805 105.141 18.8594 106.312 20.6172C106.898 21.4844 107.191 22.3164 107.191 23.1133V31.7969C107.191 32.9453 106.699 34.0586 105.715 35.1367C104.566 36.3789 103.113 37.0117 101.355 37.0352ZM109.863 31.9375V18.0156H112.852V31.5859C112.852 32.4297 113.273 33.1328 114.117 33.6953C114.68 34.0469 115.301 34.2227 115.98 34.2227V37.1758C113.73 37.1758 111.996 36.2969 110.777 34.5391C110.168 33.6484 109.863 32.7812 109.863 31.9375ZM117.527 37.1758V34.2227C118.793 34.2227 119.719 33.7188 120.305 32.7109C120.516 32.3359 120.621 31.9609 120.621 31.5859V18.0156H123.609V31.9375C123.609 33.0391 123.105 34.1289 122.098 35.207C120.879 36.4961 119.355 37.1523 117.527 37.1758ZM125.648 32.0078L128.426 31.4805C128.426 32.5352 128.977 33.3672 130.078 33.9766C130.617 34.2344 131.133 34.375 131.625 34.3984V37.1758C129.352 37.1758 127.652 36.3555 126.527 34.7148C125.941 33.8477 125.648 32.9453 125.648 32.0078ZM125.824 23.3594C125.824 21.2266 126.797 19.6445 128.742 18.6133C129.68 18.1211 130.617 17.875 131.555 17.875V20.6172C130.477 20.6172 129.645 21.0625 129.059 21.9531C128.754 22.3984 128.602 22.8672 128.602 23.3594C128.602 24.1094 129.188 24.7188 130.359 25.1875C131.25 25.5625 132.973 26.0547 135.527 26.6641C137.121 26.9922 138.258 27.7773 138.938 29.0195C139.289 29.6758 139.465 30.4141 139.465 31.2344C139.465 33.4844 138.562 35.1484 136.758 36.2266C135.703 36.8594 134.496 37.1758 133.137 37.1758V34.3984C134.215 34.3984 135.117 34.0234 135.844 33.2734C136.359 32.7344 136.617 32.1016 136.617 31.375C136.617 30.4375 135.691 29.6875 133.84 29.125C133.371 28.9844 132.621 28.7852 131.59 28.5273C130.488 28.2695 129.691 28.0586 129.199 27.8945C127.418 27.1914 126.34 26.125 125.965 24.6953C125.871 24.2734 125.824 23.8281 125.824 23.3594ZM133.102 20.6523V17.875C135.117 17.875 136.746 18.625 137.988 20.125C138.762 21.0859 139.148 22.0938 139.148 23.1484L136.371 23.6055C136.371 22.3164 135.668 21.4141 134.262 20.8984C133.84 20.7344 133.453 20.6523 133.102 20.6523ZM141.539 31.7969V23.0781C141.562 22 142.078 20.9336 143.086 19.8789C144.305 18.6367 145.781 18.0039 147.516 17.9805V20.7578C146.391 20.7578 145.512 21.25 144.879 22.2344C144.621 22.6562 144.492 23.043 144.492 23.3945V25.7852H152.367V23.3945C152.367 22.3398 151.828 21.5664 150.75 21.0742C150.258 20.8398 149.754 20.7227 149.238 20.7227V17.9805C150.855 17.9805 152.297 18.5547 153.562 19.7031C154.617 20.7109 155.156 21.8242 155.18 23.043V28.6328H144.492V31.7969C144.492 32.4531 144.867 33.0625 145.617 33.625C146.227 34.0469 146.871 34.2578 147.551 34.2578V37C145.418 37 143.742 36.1328 142.523 34.3984C141.867 33.4844 141.539 32.6172 141.539 31.7969ZM149.238 37V34.2227C150.645 34.2227 151.699 33.6133 152.402 32.3945C152.543 32.1367 152.648 31.8906 152.719 31.6562L155.215 32.5703C154.793 34.1875 153.832 35.4062 152.332 36.2266C151.371 36.7422 150.34 37 149.238 37Z" fill="white"/>
<path d="M1.068 63V54.48H4.668C5.036 54.48 5.372 54.556 5.676 54.708C5.98 54.86 6.244 55.068 6.468 55.332C6.7 55.588 6.876 55.876 6.996 56.196C7.124 56.508 7.188 56.828 7.188 57.156C7.188 57.564 7.108 57.948 6.948 58.308C6.796 58.668 6.576 58.972 6.288 59.22C6.008 59.468 5.676 59.632 5.292 59.712L7.38 63H6.432L4.428 59.856H1.908V63H1.068ZM1.908 59.112H4.692C5.028 59.112 5.32 59.02 5.568 58.836C5.816 58.652 6.008 58.412 6.144 58.116C6.28 57.812 6.348 57.492 6.348 57.156C6.348 56.812 6.268 56.496 6.108 56.208C5.956 55.912 5.748 55.676 5.484 55.5C5.228 55.316 4.94 55.224 4.62 55.224H1.908V59.112ZM16.0718 62.256V63H10.3478V54.48H15.9638V55.224H11.1878V58.296H15.3518V59.004H11.1878V62.256H16.0718ZM24.0335 56.076C23.9135 55.94 23.7735 55.82 23.6135 55.716C23.4535 55.604 23.2735 55.508 23.0735 55.428C22.8735 55.348 22.6575 55.284 22.4255 55.236C22.2015 55.188 21.9615 55.164 21.7055 55.164C20.9615 55.164 20.4135 55.308 20.0615 55.596C19.7175 55.876 19.5455 56.26 19.5455 56.748C19.5455 57.084 19.6255 57.348 19.7855 57.54C19.9535 57.732 20.2135 57.888 20.5655 58.008C20.9175 58.128 21.3655 58.252 21.9095 58.38C22.5175 58.508 23.0415 58.66 23.4815 58.836C23.9215 59.012 24.2615 59.252 24.5015 59.556C24.7415 59.852 24.8615 60.256 24.8615 60.768C24.8615 61.16 24.7855 61.5 24.6335 61.788C24.4815 62.076 24.2695 62.316 23.9975 62.508C23.7255 62.7 23.4015 62.844 23.0255 62.94C22.6495 63.028 22.2375 63.072 21.7895 63.072C21.3495 63.072 20.9255 63.028 20.5175 62.94C20.1175 62.844 19.7375 62.708 19.3775 62.532C19.0175 62.348 18.6815 62.116 18.3695 61.836L18.7895 61.152C18.9415 61.312 19.1215 61.464 19.3295 61.608C19.5455 61.744 19.7815 61.868 20.0375 61.98C20.3015 62.092 20.5815 62.18 20.8775 62.244C21.1815 62.3 21.4935 62.328 21.8135 62.328C22.4935 62.328 23.0215 62.204 23.3975 61.956C23.7815 61.708 23.9735 61.34 23.9735 60.852C23.9735 60.5 23.8775 60.22 23.6855 60.012C23.4935 59.796 23.2055 59.62 22.8215 59.484C22.4375 59.348 21.9655 59.216 21.4055 59.088C20.8135 58.952 20.3135 58.8 19.9055 58.632C19.4975 58.464 19.1895 58.244 18.9815 57.972C18.7815 57.692 18.6815 57.324 18.6815 56.868C18.6815 56.34 18.8095 55.896 19.0655 55.536C19.3295 55.168 19.6895 54.892 20.1455 54.708C20.6015 54.516 21.1255 54.42 21.7175 54.42C22.0935 54.42 22.4415 54.46 22.7615 54.54C23.0895 54.612 23.3895 54.72 23.6615 54.864C23.9415 55.008 24.2015 55.188 24.4415 55.404L24.0335 56.076ZM27.7825 63V54.48H28.6225V63H27.7825ZM32.1991 63V54.48H35.0911C35.9951 54.48 36.7471 54.672 37.3471 55.056C37.9551 55.432 38.4111 55.944 38.7151 56.592C39.0191 57.232 39.1711 57.944 39.1711 58.728C39.1711 59.592 39.0031 60.344 38.6671 60.984C38.3391 61.624 37.8671 62.12 37.2511 62.472C36.6431 62.824 35.9231 63 35.0911 63H32.1991ZM38.3311 58.728C38.3311 58.048 38.2031 57.444 37.9471 56.916C37.6991 56.388 37.3351 55.976 36.8551 55.68C36.3751 55.376 35.7871 55.224 35.0911 55.224H33.0391V62.256H35.0911C35.7951 62.256 36.3871 62.1 36.8671 61.788C37.3471 61.476 37.7111 61.056 37.9591 60.528C38.2071 59.992 38.3311 59.392 38.3311 58.728ZM47.9412 62.256V63H42.2172V54.48H47.8332V55.224H43.0572V58.296H47.2212V59.004H43.0572V62.256H47.9412ZM51.8097 56.028V63H50.9697V54.48H51.6657L57.2577 61.584V54.492H58.0977V63H57.3177L51.8097 56.028ZM67.7273 55.224H64.6913V63H63.8513V55.224H60.8153V54.48H67.7273V55.224ZM70.4435 63V54.48H71.2835V63H70.4435ZM77.5 54.48H78.208L81.748 63H80.86L79.756 60.336H75.928L74.836 63H73.936L77.5 54.48ZM79.564 59.676L77.848 55.464L76.108 59.676H79.564ZM84.4094 63V54.48H85.2494V62.256H90.1694V63H84.4094ZM96.4285 58.68C96.4285 58.16 96.5165 57.652 96.6925 57.156C96.8765 56.652 97.1405 56.196 97.4845 55.788C97.8285 55.372 98.2525 55.044 98.7565 54.804C99.2605 54.556 99.8325 54.432 100.473 54.432C101.233 54.432 101.881 54.608 102.417 54.96C102.961 55.304 103.361 55.748 103.617 56.292L102.957 56.7C102.773 56.324 102.541 56.028 102.261 55.812C101.981 55.588 101.681 55.428 101.361 55.332C101.049 55.236 100.737 55.188 100.425 55.188C99.9125 55.188 99.4605 55.292 99.0685 55.5C98.6765 55.7 98.3445 55.972 98.0725 56.316C97.8085 56.652 97.6085 57.032 97.4725 57.456C97.3365 57.872 97.2685 58.296 97.2685 58.728C97.2685 59.2 97.3485 59.652 97.5085 60.084C97.6685 60.516 97.8925 60.9 98.1805 61.236C98.4685 61.564 98.8045 61.828 99.1885 62.028C99.5805 62.22 100.005 62.316 100.461 62.316C100.781 62.316 101.109 62.26 101.445 62.148C101.781 62.036 102.093 61.864 102.381 61.632C102.677 61.4 102.913 61.1 103.089 60.732L103.785 61.092C103.609 61.516 103.337 61.876 102.969 62.172C102.601 62.468 102.189 62.692 101.733 62.844C101.285 62.996 100.845 63.072 100.413 63.072C99.8285 63.072 99.2925 62.948 98.8045 62.7C98.3165 62.444 97.8925 62.108 97.5325 61.692C97.1805 61.268 96.9085 60.796 96.7165 60.276C96.5245 59.748 96.4285 59.216 96.4285 58.68ZM109.997 63.06C109.397 63.06 108.853 62.94 108.365 62.7C107.877 62.46 107.457 62.136 107.105 61.728C106.753 61.312 106.481 60.848 106.289 60.336C106.097 59.816 106.001 59.284 106.001 58.74C106.001 58.172 106.101 57.632 106.301 57.12C106.501 56.6 106.781 56.14 107.141 55.74C107.509 55.332 107.937 55.012 108.425 54.78C108.913 54.54 109.441 54.42 110.009 54.42C110.609 54.42 111.153 54.544 111.641 54.792C112.129 55.04 112.545 55.372 112.889 55.788C113.241 56.204 113.513 56.668 113.705 57.18C113.897 57.692 113.993 58.216 113.993 58.752C113.993 59.32 113.893 59.864 113.693 60.384C113.493 60.896 113.213 61.356 112.853 61.764C112.493 62.164 112.069 62.48 111.581 62.712C111.093 62.944 110.565 63.06 109.997 63.06ZM106.841 58.74C106.841 59.204 106.917 59.652 107.069 60.084C107.221 60.508 107.437 60.888 107.717 61.224C107.997 61.552 108.329 61.816 108.713 62.016C109.105 62.208 109.533 62.304 109.997 62.304C110.485 62.304 110.921 62.204 111.305 62.004C111.697 61.796 112.029 61.524 112.301 61.188C112.581 60.844 112.793 60.46 112.937 60.036C113.081 59.612 113.153 59.18 113.153 58.74C113.153 58.276 113.077 57.832 112.925 57.408C112.773 56.984 112.553 56.604 112.265 56.268C111.985 55.932 111.653 55.668 111.269 55.476C110.885 55.284 110.461 55.188 109.997 55.188C109.517 55.188 109.081 55.288 108.689 55.488C108.305 55.688 107.973 55.96 107.693 56.304C107.421 56.64 107.209 57.02 107.057 57.444C106.913 57.868 106.841 58.3 106.841 58.74ZM124.565 63V56.064L121.481 61.452H120.953L117.857 56.064V63H117.017V54.48H117.881L121.205 60.312L124.553 54.48H125.405V63H124.565ZM128.98 63V54.48H132.508C132.876 54.48 133.212 54.556 133.516 54.708C133.828 54.86 134.096 55.068 134.32 55.332C134.544 55.588 134.72 55.876 134.848 56.196C134.976 56.508 135.04 56.828 135.04 57.156C135.04 57.62 134.936 58.06 134.728 58.476C134.528 58.884 134.244 59.216 133.876 59.472C133.508 59.728 133.076 59.856 132.58 59.856H129.82V63H128.98ZM129.82 59.112H132.544C132.88 59.112 133.172 59.02 133.42 58.836C133.668 58.652 133.86 58.412 133.996 58.116C134.132 57.82 134.2 57.5 134.2 57.156C134.2 56.804 134.12 56.48 133.96 56.184C133.8 55.888 133.588 55.656 133.324 55.488C133.068 55.312 132.784 55.224 132.472 55.224H129.82V59.112ZM137.885 63V54.48H138.725V62.256H143.645V63H137.885ZM152.045 62.256V63H146.321V54.48H151.937V55.224H147.161V58.296H151.325V59.004H147.161V62.256H152.045ZM155.026 54.48L157.81 58.188L160.582 54.48H161.53L158.266 58.8L161.434 63H160.486L157.81 59.412L155.122 63H154.162L157.33 58.8L154.066 54.48H155.026Z" fill="white"/>
</svg>
